<?xml version="1.0" encoding="UTF-8" standalone="no"?>
<svg
   viewBox="-124.608 159.875 302.39007 25.784532"
   version="1.1"
   id="svg947"
   sodipodi:docname="fzj_icf_logo.svg"
   width="302.39008"
   height="25.784531"
   inkscape:version="1.2.2 (b0a8486541, 2022-12-01)"
   inkscape:export-filename="fzj_icf_logo.webp"
   inkscape:export-xdpi="300"
   inkscape:export-ydpi="300"
   xmlns:inkscape="http://www.inkscape.org/namespaces/inkscape"
   xmlns:sodipodi="http://sodipodi.sourceforge.net/DTD/sodipodi-0.dtd"
   xmlns="http://www.w3.org/2000/svg"
   xmlns:svg="http://www.w3.org/2000/svg">
  <defs
     id="defs951">
    <rect
       x="117.60154"
       y="-35.831718"
       width="76.520988"
       height="9.4668012"
       id="rect2763" />
  </defs>
  <sodipodi:namedview
     id="namedview949"
     pagecolor="#ffffff"
     bordercolor="#666666"
     borderopacity="1.0"
     inkscape:pageshadow="2"
     inkscape:pageopacity="0.0"
     inkscape:pagecheckerboard="0"
     showgrid="false"
     inkscape:zoom="5.160593"
     inkscape:cx="149.49832"
     inkscape:cy="-4.4568521"
     inkscape:window-width="2560"
     inkscape:window-height="1371"
     inkscape:window-x="0"
     inkscape:window-y="0"
     inkscape:window-maximized="1"
     inkscape:current-layer="svg947"
     inkscape:showpageshadow="2"
     inkscape:deskcolor="#d1d1d1" />
  <path
     inkscape:connector-curvature="0"
     id="path71"
     style="fill:#023d6b;stroke-width:0.263727;stroke-linecap:butt;stroke-linejoin:round;stroke-miterlimit:100000"
     d="m -70.94002,180.89473 h -0.36428 a 0.13091411,0.13091411 0 0 0 -0.130915,0.13661 v 1.59943 c 0,0.47243 -0.239059,0.72856 -0.603348,0.72856 -0.364281,0 -0.569192,-0.25613 -0.569192,-0.72856 v -1.59943 a 0.14229795,0.14229795 0 0 0 -0.142292,-0.13661 h -0.358588 a 0.13660603,0.13660603 0 0 0 -0.136616,0.13661 v 1.52543 c 0,0.82534 0.335826,1.3376 1.03024,1.3376 a 0.85947959,0.85947959 0 0 0 0.785489,-0.37567 v 0.18214 a 0.13091411,0.13091411 0 0 0 0.130914,0.13661 h 0.364281 a 0.13660603,0.13660603 0 0 0 0.136608,-0.13661 v -2.6695 a 0.13660603,0.13660603 0 0 0 -0.142301,-0.13661 z m -4.553535,-0.0626 a 0.89932311,0.89932311 0 0 0 -0.813944,0.39843 v -1.37175 a 0.14229795,0.14229795 0 0 0 -0.1423,-0.1423 h -0.358596 a 0.13660603,0.13660603 0 0 0 -0.136599,0.1423 v 3.84204 a 0.13091411,0.13091411 0 0 0 0.136599,0.13661 h 0.381367 a 0.13660603,0.13660603 0 0 0 0.142292,-0.13661 v -1.59374 c 0,-0.47242 0.256137,-0.73425 0.626118,-0.73425 0.369974,0 0.62041,0.26183 0.62041,0.73425 v 1.59374 a 0.13660603,0.13660603 0 0 0 0.136615,0.13661 h 0.358589 a 0.13660603,0.13660603 0 0 0 0.1423,-0.13661 v -1.52544 c -0.0058,-0.80255 -0.352896,-1.34328 -1.075773,-1.34328 z m 0.973321,-16.4155 h -1.417291 a 0.52934838,0.52934838 0 0 0 -0.529343,0.52935 v 6.76201 c 0,1.7588 -0.853792,2.51013 -2.066173,2.51013 -1.21238,0 -2.032016,-0.75133 -2.032016,-2.51013 v -6.76201 a 0.52934838,0.52934838 0 0 0 -0.529352,-0.52935 h -1.417283 a 0.52934838,0.52934838 0 0 0 -0.529351,0.52935 v 6.76201 c 0,2.98825 1.810035,4.83242 4.508002,4.83242 2.697967,0 4.553536,-1.84417 4.553536,-4.83242 v -6.76201 a 0.52934838,0.52934838 0 0 0 -0.523651,-0.52935 z m -9.9381,16.50657 h -0.07399 a 0.8936311,0.8936311 0 0 0 -0.785488,0.43828 v -0.30168 a 0.13091411,0.13091411 0 0 0 -0.130915,-0.1366 h -0.330124 a 0.13660603,0.13660603 0 0 0 -0.136608,0.1366 v 2.66951 a 0.13091411,0.13091411 0 0 0 0.136608,0.1366 h 0.352895 a 0.14229795,0.14229795 0 0 0 0.1423,-0.1366 v -1.36036 c 0,-0.5692 0.250444,-0.8481 0.74564,-0.8481 h 0.07965 a 0.13660603,0.13660603 0 0 0 0.1423,-0.13092 v -0.35858 a 0.14229795,0.14229795 0 0 0 -0.125222,-0.13661 z m 5.356101,0.47812 a 0.60903521,0.60903521 0 0 1 0.614734,0.52365 0.09676261,0.09676261 0 0 0 0.09676,0.0854 h 0.409814 a 0.08537877,0.08537877 0 0 0 0.08538,-0.0968 0.18214137,0.18214137 0 0 0 0,-0.0741 1.2009947,1.2009947 0 0 0 -1.195302,-0.979 1.24653,1.24653 0 0 0 -1.252221,1.34328 v 0.38136 a 1.2408381,1.2408381 0 0 0 1.252221,1.3376 1.178227,1.178227 0 0 0 1.195302,-0.94485 0.72856551,0.72856551 0 0 0 0,-0.0968 0.09107069,0.09107069 0 0 0 -0.09677,-0.0911 h -0.409814 a 0.08537877,0.08537877 0 0 0 -0.09107,0.0797 0.56919182,0.56919182 0 0 1 -0.609041,0.51796 c -0.36428,0 -0.631803,-0.25613 -0.631803,-0.72856 v -0.52366 c 0.01706,-0.50089 0.284592,-0.76271 0.648881,-0.76271 z m -3.773739,0.29598 c 0,-0.24475 0.22198,-0.32444 0.478117,-0.32444 a 0.5008888,0.5008888 0 0 1 0.569192,0.36428 c 0,0.0626 0.03986,0.0911 0.108152,0.0911 h 0.369966 a 0.09676261,0.09676261 0 0 0 0.09677,-0.10245 0.25044441,0.25044441 0 0 0 0,-0.0741 1.0302372,1.0302372 0 0 0 -1.098535,-0.79117 c -0.569192,0 -1.138384,0.25612 -1.138384,0.86516 0,1.19531 1.673419,0.7001 1.673419,1.31484 0,0.2732 -0.204911,0.37566 -0.569191,0.37566 a 0.56919182,0.56919182 0 0 1 -0.603348,-0.39274 c 0,-0.0569 -0.03978,-0.0968 -0.102452,-0.0968 h -0.364289 a 0.10814644,0.10814644 0 0 0 -0.108144,0.0968 0.17644945,0.17644945 0 0 0 0,0.0797 1.0757725,1.0757725 0 0 0 1.138384,0.81964 c 0.60904,0 1.138384,-0.22768 1.138384,-0.89364 0.09677,-1.20668 -1.57096,-0.71718 -1.57096,-1.36037 z m 2.652434,-18.29383 a 1.2294543,1.2294543 0 1 0 -1.229459,-1.22945 1.1383836,1.1383836 0 0 0 1.246528,1.20099 z m 3.585906,0 a 1.2294543,1.2294543 0 1 0 -1.229458,-1.22945 1.1383836,1.1383836 0 0 0 1.246536,1.20099 z m -9.038775,1.57097 a 0.52934838,0.52934838 0 0 0 -0.529344,-0.52935 h -1.417291 a 0.52934838,0.52934838 0 0 0 -0.529343,0.52935 v 7.68978 a 1.4457472,1.4457472 0 1 1 -2.8858,0 v -0.15368 a 0.52934838,0.52934838 0 0 0 -0.529352,-0.52934 h -1.366057 a 0.52934838,0.52934838 0 0 0 -0.529344,0.52934 v 0.11953 a 3.8932727,3.8932727 0 1 0 7.786531,0 z m -29.671963,5.88545 4.20064,-10.91141 a 12.920654,12.920654 0 0 0 -12.86943,6.94414 0.28459589,0.28459589 0 0 1 0,0.074 l -0.18214,0.47243 c -1.27499,3.29563 0.67165,5.73746 2.56136,6.46603 a 4.8665899,4.8665899 0 0 0 6.28957,-3.04518 z m 27.184599,9.97224 a 1.2522219,1.2522219 0 0 0 -1.263597,1.34328 v 0.38136 a 1.2692986,1.2692986 0 1 0 2.538589,0 v -0.38136 a 1.2522219,1.2522219 0 0 0 -1.274992,-1.34328 z m 0.637496,1.79865 c 0,0.47242 -0.261829,0.72856 -0.637496,0.72856 -0.375666,0 -0.62611,-0.25614 -0.62611,-0.72856 v -0.52367 c 0,-0.47242 0.267522,-0.73425 0.62611,-0.73425 0.358589,0 0.637496,0.26183 0.637496,0.73425 z m -20.206305,-8.94201 c -2.50445,6.5457 -8.53788,8.99893 -14.06473,8.05407 a 12.903578,12.903578 0 1 0 18.08323,-18.40198 z m 17.644945,6.02774 h -2.276767 a 0.13660603,0.13660603 0 0 0 -0.130915,0.1423 v 3.84204 a 0.13091411,0.13091411 0 0 0 0.130915,0.13661 h 0.358596 a 0.13660603,0.13660603 0 0 0 0.142292,-0.13661 v -1.50836 h 1.422984 a 0.13660603,0.13660603 0 0 0 0.136599,-0.1366 v -0.31305 a 0.14229795,0.14229795 0 0 0 -0.136599,-0.14231 h -1.422984 v -1.29206 h 1.775879 a 0.14229795,0.14229795 0 0 0 0.142292,-0.13661 v -0.31305 a 0.14229795,0.14229795 0 0 0 -0.142292,-0.1423 z m 48.637453,1.17823 h -0.358589 a 0.13660603,0.13660603 0 0 0 -0.136599,0.13661 v 1.59943 c 0,0.47242 -0.239067,0.72856 -0.603348,0.72856 -0.364281,0 -0.569192,-0.25614 -0.569192,-0.72856 v -1.59943 a 0.14229795,0.14229795 0 0 0 -0.1423,-0.13661 h -0.358588 a 0.13660603,0.13660603 0 0 0 -0.136607,0.13661 v 1.52542 c 0,0.82534 0.335826,1.33761 1.03024,1.33761 a 0.85947959,0.85947959 0 0 0 0.785488,-0.37567 v 0.18214 a 0.13091411,0.13091411 0 0 0 0.136599,0.13661 h 0.358588 a 0.13660603,0.13660603 0 0 0 0.136608,-0.13661 v -2.6695 a 0.13660603,0.13660603 0 0 0 -0.159378,-0.13661 z m -6.027737,-8.79403 h -1.758802 c -0.341518,0 -0.409822,0.27322 -0.44397,0.52936 a 1.7815704,1.7815704 0 0 1 -1.946643,1.58805 c -1.246528,0 -2.276768,-0.9221 -2.276768,-2.68089 v -2.27677 c 0,-1.75881 1.007478,-2.71505 2.276768,-2.71505 a 1.8612572,1.8612572 0 0 1 1.952336,1.66204 c 0.05127,0.34152 0.239059,0.46104 0.426892,0.46104 h 1.741723 a 0.35859086,0.35859086 0 0 0 0.375666,-0.42688 4.2973981,4.2973981 0 0 0 -4.496617,-4.0185 c -2.732114,0 -4.729983,2.01494 -4.729983,5.00319 v 2.27677 c 0,2.98826 1.997869,5.0032 4.729983,5.0032 a 4.3884687,4.3884687 0 0 0 4.553544,-4.02988 0.38705041,0.38705041 0 0 0 -0.404129,-0.37568 z m 2.618286,8.79403 h -0.07973 a 0.87655535,0.87655535 0 0 0 -0.779796,0.43828 v -0.30167 a 0.13660603,0.13660603 0 0 0 -0.136607,-0.13661 h -0.330133 a 0.13660603,0.13660603 0 0 0 -0.136607,0.13661 v 2.6695 a 0.13091411,0.13091411 0 0 0 0.136607,0.13661 h 0.352895 a 0.14229795,0.14229795 0 0 0 0.1423,-0.13661 v -1.3319 c 0,-0.5692 0.250445,-0.8481 0.74564,-0.8481 h 0.08539 a 0.13091411,0.13091411 0 0 0 0.136599,-0.13092 v -0.35858 a 0.13660603,0.13660603 0 0 0 -0.136599,-0.13661 z m -2.669512,0 h -0.597647 v -0.62611 a 0.13660603,0.13660603 0 0 0 -0.136616,-0.14231 h -0.347203 a 0.13660603,0.13660603 0 0 0 -0.130914,0.14231 v 0.25613 c 0,0.30167 -0.11953,0.36998 -0.409823,0.36998 a 0.13660603,0.13660603 0 0 0 -0.136599,0.13661 v 0.26752 a 0.13660603,0.13660603 0 0 0 0.136599,0.1366 h 0.40413 v 1.45713 c 0,0.60904 0.204911,0.94486 0.91071,0.94486 h 0.307363 a 0.13660603,0.13660603 0 0 0 0.136607,-0.13661 v -0.30167 a 0.13091411,0.13091411 0 0 0 -0.136607,-0.13091 h -0.204911 c -0.352896,0 -0.392736,-0.12523 -0.392736,-0.46105 v -1.35467 h 0.597647 a 0.13660603,0.13660603 0 0 0 0.130915,-0.15368 v -0.2846 a 0.13660603,0.13660603 0 0 0 -0.130915,-0.11953 z m 10.59835,-0.0626 a 1.0302372,1.0302372 0 0 0 -0.916394,0.47812 0.93347454,0.93347454 0 0 0 -0.865178,-0.47812 0.83671191,0.83671191 0 0 0 -0.762718,0.39843 v -0.19921 a 0.14229795,0.14229795 0 0 0 -0.142291,-0.13661 h -0.381359 a 0.13660603,0.13660603 0 0 0 -0.136616,0.13661 v 2.6695 a 0.13091411,0.13091411 0 0 0 0.136616,0.13661 h 0.358588 a 0.14229795,0.14229795 0 0 0 0.1423,-0.13661 v -1.50266 c 0,-0.47243 0.09107,-0.82533 0.569184,-0.82533 0.478126,0 0.569192,0.29029 0.569192,0.82533 v 1.50266 a 0.13660603,0.13660603 0 0 0 0.136615,0.13661 h 0.364273 a 0.13660603,0.13660603 0 0 0 0.136607,-0.13661 v -1.50266 c 0,-0.50658 0.119538,-0.82533 0.597656,-0.82533 0.478117,0 0.569192,0.31875 0.569192,0.82533 v 1.50266 a 0.13091411,0.13091411 0 0 0 0.136599,0.13661 h 0.404129 a 0.14229795,0.14229795 0 0 0 0.1423,-0.13661 v -1.44005 c -0.02272,-0.8481 -0.193526,-1.42867 -1.058695,-1.42867 z m -14.229798,0 a 0.8936311,0.8936311 0 0 0 -0.808251,0.40413 v -0.20491 a 0.13660603,0.13660603 0 0 0 -0.136607,-0.13661 h -0.364281 a 0.13091411,0.13091411 0 0 0 -0.130915,0.13661 v 2.6695 a 0.13091411,0.13091411 0 0 0 0.130915,0.13661 h 0.364281 a 0.13660603,0.13660603 0 0 0 0.136607,-0.13661 v -1.59373 c 0,-0.47243 0.261821,-0.73426 0.62611,-0.73426 0.36429,0 0.626111,0.26183 0.626111,0.73426 v 1.59373 a 0.13091411,0.13091411 0 0 0 0.136607,0.13661 h 0.335826 a 0.13660603,0.13660603 0 0 0 0.136599,-0.13661 v -1.52543 c 0.0114,-0.80256 -0.34151,-1.34329 -1.064379,-1.34329 z m 14.79899,-16.4155 h -1.417291 a 0.52934838,0.52934838 0 0 0 -0.529352,0.52935 v 4.26895 h -4.081102 v -4.26895 a 0.52934838,0.52934838 0 0 0 -0.529343,-0.52935 h -1.417292 a 0.52934838,0.52934838 0 0 0 -0.529351,0.52935 v 10.89433 a 0.52934838,0.52934838 0 0 0 0.529351,0.52935 h 1.417292 a 0.52934838,0.52934838 0 0 0 0.529343,-0.52935 v -4.30304 h 4.046955 v 4.30307 a 0.52934838,0.52934838 0 0 0 0.529343,0.52935 h 1.417291 a 0.52934838,0.52934838 0 0 0 0.529352,-0.52935 v -10.89433 a 0.52934838,0.52934838 0 0 0 -0.529352,-0.52935 z m -31.772297,16.4155 a 0.8936311,0.8936311 0 0 0 -0.808251,0.40413 v -0.20491 a 0.13660603,0.13660603 0 0 0 -0.136607,-0.13661 h -0.358597 a 0.13660603,0.13660603 0 0 0 -0.136599,0.13661 v 2.6695 a 0.13091411,0.13091411 0 0 0 0.136599,0.13661 h 0.358597 a 0.13660603,0.13660603 0 0 0 0.136607,-0.13661 v -1.59373 c 0,-0.47243 0.26183,-0.73426 0.62611,-0.73426 0.364281,0 0.626111,0.26183 0.626111,0.73426 v 1.59373 a 0.13091411,0.13091411 0 0 0 0.136607,0.13661 h 0.358597 a 0.14229795,0.14229795 0 0 0 0.142291,-0.13661 v -1.52543 c 0,-0.80256 -0.352895,-1.34329 -1.081465,-1.34329 z m 3.790818,2.43614 h -0.76271 c -0.199226,0 -0.284608,-0.0626 -0.284608,-0.2106 a 0.20490904,0.20490904 0 0 1 0.233374,-0.2106 h 0.569192 a 0.98470182,0.98470182 0 0 0 1.138384,-1.00178 v -1.20668 a 0.13660603,0.13660603 0 0 0 -0.136599,-0.13661 h -0.318748 a 0.13660603,0.13660603 0 0 0 -0.136616,0.13661 v 0.38136 a 1.0643887,1.0643887 0 0 0 -0.603339,-0.18784 h -0.147993 a 1.0074695,1.0074695 0 0 0 -1.138375,1.01316 0.79686852,0.79686852 0 0 0 0.375657,0.71719 0.4724292,0.4724292 0 0 0 -0.398428,0.48381 0.46673728,0.46673728 0 0 0 0.267514,0.44965 0.71718168,0.71718168 0 0 0 -0.398429,0.67735 0.91639886,0.91639886 0 0 0 1.041617,0.89931 h 0.683029 a 0.91070695,0.91070695 0 1 0 0,-1.80433 z m -0.426892,-1.94094 h 0.15937 a 0.51796453,0.51796453 0 1 1 0,1.03024 h -0.15937 a 0.49519687,0.49519687 0 0 1 -0.569192,-0.51228 0.5008888,0.5008888 0 0 1 0.569192,-0.51796 z m 0.307362,3.25577 h -0.466732 c -0.398445,0 -0.540737,-0.15937 -0.540737,-0.40981 0,-0.25045 0.142292,-0.4269 0.540737,-0.4269 h 0.455347 c 0.404129,0 0.5692,0.16506 0.5692,0.4269 0,0.26182 -0.153694,0.40981 -0.5692,0.40981 z m 2.618278,-2.91426 c 0,-0.24474 0.221989,-0.32443 0.478134,-0.32443 a 0.50658071,0.50658071 0 0 1 0.569184,0.36428 c 0,0.0626 0.03986,0.0911 0.10246,0.0911 h 0.375666 a 0.09676261,0.09676261 0 0 0 0.09676,-0.10245 0.25044441,0.25044441 0 0 0 0,-0.074 1.0302372,1.0302372 0 0 0 -1.098544,-0.79117 c -0.569192,0 -1.138375,0.25613 -1.138375,0.86517 0,1.1953 1.673419,0.70011 1.673419,1.31483 0,0.27322 -0.204911,0.37567 -0.540728,0.37567 a 0.56919182,0.56919182 0 0 1 -0.603348,-0.39274 c 0,-0.0569 -0.03986,-0.0968 -0.10246,-0.0968 h -0.369965 a 0.10245453,0.10245453 0 0 0 -0.10246,0.0968 0.17644945,0.17644945 0 0 0 0,0.0796 1.0700806,1.0700806 0 0 0 1.166847,0.81964 c 0.609033,0 1.138384,-0.22768 1.138384,-0.89364 0.0228,-1.17823 -1.644973,-0.68872 -1.644973,-1.33191 z m -1.770187,-5.82853 v -1.2636 a 0.52934838,0.52934838 0 0 0 -0.529343,-0.52935 h -4.553535 v -9.10707 a 0.52934838,0.52934838 0 0 0 -0.529352,-0.52935 h -1.417291 a 0.52934838,0.52934838 0 0 0 -0.529344,0.52935 v 10.90002 a 0.52934838,0.52934838 0 0 0 0.529344,0.52935 h 6.488793 a 0.52934838,0.52934838 0 0 0 0.540728,-0.52935 z m 4.695844,0 v -10.89433 a 0.52934838,0.52934838 0 0 0 -0.529351,-0.52935 h -1.417292 a 0.52934838,0.52934838 0 0 0 -0.529351,0.52935 v 10.89433 a 0.52934838,0.52934838 0 0 0 0.529351,0.52935 h 1.417292 a 0.52934838,0.52934838 0 0 0 0.529351,-0.52935 z m 1.707576,5.05443 h -1.94095 a 0.14229795,0.14229795 0 0 0 -0.1423,0.13661 v 0.26752 a 0.13660603,0.13660603 0 0 0 0.1423,0.1366 h 1.337602 l -1.37175,1.75311 a 0.31874741,0.31874741 0 0 0 -0.108152,0.26184 v 0.23905 a 0.13660603,0.13660603 0 0 0 0.1423,0.13661 h 1.94095 a 0.13091411,0.13091411 0 0 0 0.136599,-0.13661 v -0.26751 a 0.13660603,0.13660603 0 0 0 -0.136599,-0.14231 h -1.360373 l 1.411599,-1.74741 a 0.30167166,0.30167166 0 0 0 0.08537,-0.23337 v -0.2846 a 0.13660603,0.13660603 0 0 0 -0.113828,-0.11953 z m 2.276768,-0.0626 a 1.2579139,1.2579139 0 0 0 -1.274991,1.34328 v 0.38136 a 1.2579139,1.2579139 0 0 0 1.280684,1.33761 1.2066867,1.2066867 0 0 0 1.138383,-0.7798 0.36428274,0.36428274 0 0 0 0,-0.0968 0.09676261,0.09676261 0 0 0 -0.09677,-0.10245 h -0.381358 a 0.17075754,0.17075754 0 0 0 -0.136599,0.0854 0.56919182,0.56919182 0 0 1 -0.569201,0.35859 0.64887867,0.64887867 0 0 1 -0.643188,-0.70011 v -0.0796 h 1.747424 a 0.14229795,0.14229795 0 0 0 0.210604,-0.1423 v -0.27321 a 1.2522219,1.2522219 0 0 0 -1.246536,-1.33191 z m 0.637496,1.29775 h -1.274992 v -0.0683 a 0.637496,0.637496 0 1 1 1.274992,0 z" />
  <g
     aria-label="ICF Study Catalog"
     transform="matrix(1.9979975,0,0,1.9979975,-210.54368,237.92223)"
     id="text2761"
     style="font-size:9.34269px;line-height:0.8;font-family:'Nanum Pen';-inkscape-font-specification:'Nanum Pen, Normal';white-space:pre;shape-inside:url(#rect2763);display:inline">
    <path
       d="m 118.33964,-29.292148 h 0.82215 v -6.511855 h -0.82215 z"
       style="font-family:'Hanken Grotesk';-inkscape-font-specification:'Hanken Grotesk';fill:#023d6b"
       id="path455" />
    <path
       d="m 123.37535,-29.180036 c 1.30797,0 2.30764,-0.700701 2.73741,-1.84051 l -0.7661,-0.28028 c -0.327,0.840842 -1.01836,1.336004 -1.97131,1.336004 -1.33601,0 -2.18619,-0.999667 -2.18619,-2.587925 0,-1.578915 0.85018,-2.578582 2.18619,-2.578582 0.95295,0 1.64431,0.495162 1.97131,1.336004 l 0.7661,-0.289623 c -0.42977,-1.139808 -1.42944,-1.831167 -2.73741,-1.831167 -1.80314,0 -3.00835,1.345347 -3.00835,3.363368 0,2.027364 1.21455,3.372711 3.00835,3.372711 z"
       style="font-family:'Hanken Grotesk';-inkscape-font-specification:'Hanken Grotesk';fill:#023d6b"
       id="path457" />
    <path
       d="m 127.2152,-29.292148 h 0.82215 v -2.95229 h 2.98967 v -0.738073 h -2.98967 v -2.08342 h 3.44746 v -0.738072 h -4.26961 z"
       style="font-family:'Hanken Grotesk';-inkscape-font-specification:'Hanken Grotesk';fill:#023d6b"
       id="path459" />
    <path
       d="m 136.91292,-29.189378 c 1.24258,0 2.12079,-0.803472 2.12079,-1.905909 0,-1.027696 -0.71939,-1.504173 -1.84985,-1.933937 -0.90624,-0.336337 -1.42009,-0.597932 -1.42009,-1.205207 0,-0.551219 0.44845,-0.952955 1.09309,-0.952955 0.53254,0 0.94361,0.280281 1.23324,0.784786 l 0.65399,-0.401735 c -0.3924,-0.72873 -1.03704,-1.11178 -1.8592,-1.11178 -1.16784,0 -1.94328,0.719387 -1.94328,1.700369 0,0.990325 0.71939,1.45746 1.80314,1.868538 0.86887,0.336337 1.47614,0.607275 1.47614,1.298634 0,0.663331 -0.56056,1.121123 -1.27994,1.121123 -0.84085,0 -1.45746,-0.457792 -1.5976,-1.336005 l -0.80348,0.196197 c 0.18686,1.139808 1.06507,1.877881 2.37305,1.877881 z"
       style="font-family:'Hanken Grotesk';-inkscape-font-specification:'Hanken Grotesk';fill:#023d6b"
       id="path461" />
    <path
       d="m 141.36937,-29.217406 c 0.22423,0 0.47648,-0.03737 0.71005,-0.121455 v -0.616618 c -0.1962,0.05606 -0.38305,0.08408 -0.50451,0.08408 -0.42042,0 -0.56056,-0.289623 -0.56056,-0.803471 v -2.606611 h 1.06507 v -0.616617 h -1.06507 v -1.681685 l -0.80347,0.44845 v 1.233235 h -0.95296 v 0.616617 h 0.95296 v 2.81215 c 0,0.887556 0.49516,1.251921 1.15849,1.251921 z"
       style="font-family:'Hanken Grotesk';-inkscape-font-specification:'Hanken Grotesk';fill:#023d6b"
       id="path463" />
    <path
       d="m 144.62064,-29.217406 c 0.59793,0 1.10243,-0.233568 1.42008,-0.682017 v 0.607275 h 0.78479 v -4.605946 h -0.78479 v 2.288959 c 0,1.177179 -0.42976,1.70037 -1.19586,1.70037 -0.69136,0 -1.04638,-0.429764 -1.04638,-1.354691 v -2.634638 h -0.78479 v 2.914919 c 0,1.158494 0.60728,1.765769 1.60695,1.765769 z"
       style="font-family:'Hanken Grotesk';-inkscape-font-specification:'Hanken Grotesk';fill:#023d6b"
       id="path465" />
    <path
       d="m 150.05809,-29.217406 c 0.65399,0 1.15849,-0.308309 1.47614,-0.794129 v 0.719387 h 0.78479 v -6.511855 h -0.78479 v 2.625296 c -0.29896,-0.467135 -0.81281,-0.794129 -1.47614,-0.794129 -1.1585,0 -2.09276,0.924927 -2.09276,2.373044 0,1.35469 0.84084,2.382386 2.09276,2.382386 z m 0.1308,-0.72873 c -0.84085,0 -1.42944,-0.682017 -1.42944,-1.653656 0,-0.97164 0.58859,-1.653657 1.42944,-1.653657 0.8315,0 1.41074,0.682017 1.41074,1.653657 0,0.971639 -0.57924,1.653656 -1.41074,1.653656 z"
       style="font-family:'Hanken Grotesk';-inkscape-font-specification:'Hanken Grotesk';fill:#023d6b"
       id="path467" />
    <path
       d="m 154.12216,-27.395582 h 0.85952 l 2.65333,-6.502512 h -0.85953 l -1.35469,3.587593 -1.34535,-3.587593 h -0.86887 l 1.7938,4.381722 z"
       style="font-family:'Hanken Grotesk';-inkscape-font-specification:'Hanken Grotesk';fill:#023d6b"
       id="path469" />
    <path
       d="m 163.76381,-29.180036 c 1.30798,0 2.30765,-0.700701 2.73741,-1.84051 l -0.7661,-0.28028 c -0.32699,0.840842 -1.01835,1.336004 -1.97131,1.336004 -1.336,0 -2.18618,-0.999667 -2.18618,-2.587925 0,-1.578915 0.85018,-2.578582 2.18618,-2.578582 0.95296,0 1.64432,0.495162 1.97131,1.336004 l 0.7661,-0.289623 c -0.42976,-1.139808 -1.42943,-1.831167 -2.73741,-1.831167 -1.80313,0 -3.00834,1.345347 -3.00834,3.363368 0,2.027364 1.21455,3.372711 3.00834,3.372711 z"
       style="font-family:'Hanken Grotesk';-inkscape-font-specification:'Hanken Grotesk';fill:#023d6b"
       id="path471" />
    <path
       d="m 170.5653,-29.292148 h 0.72873 v -2.886891 c 0,-1.139808 -0.69136,-1.793797 -1.89657,-1.793797 -0.78478,0 -1.45746,0.270938 -1.96196,0.86887 l 0.5699,0.48582 c 0.41108,-0.48582 0.8315,-0.672673 1.33601,-0.672673 0.7661,0 1.16783,0.401735 1.16783,1.11178 v 0.168168 h -1.42009 c -0.45779,0 -0.88755,0.07474 -1.21455,0.280281 -0.32699,0.205539 -0.55122,0.551219 -0.55122,1.065067 0,0.86887 0.66334,1.448117 1.71906,1.448117 0.64465,0 1.16784,-0.298966 1.47614,-0.784786 z m -2.44779,-1.364033 c 0,-0.252252 0.0934,-0.439106 0.2616,-0.560561 0.22422,-0.158826 0.54187,-0.196197 0.82216,-0.196197 h 1.30797 v 0.177512 c 0,0.794128 -0.6353,1.373375 -1.39206,1.373375 -0.61662,0 -0.99967,-0.308309 -0.99967,-0.794129 z"
       style="font-family:'Hanken Grotesk';-inkscape-font-specification:'Hanken Grotesk';fill:#023d6b"
       id="path473" />
    <path
       d="m 174.11553,-29.217406 c 0.22423,0 0.47648,-0.03737 0.71005,-0.121455 v -0.616618 c -0.1962,0.05606 -0.38305,0.08408 -0.50451,0.08408 -0.42042,0 -0.56056,-0.289623 -0.56056,-0.803471 v -2.606611 h 1.06507 v -0.616617 h -1.06507 v -1.681685 l -0.80347,0.44845 v 1.233235 h -0.95296 v 0.616617 h 0.95296 v 2.81215 c 0,0.887556 0.49516,1.251921 1.15849,1.251921 z"
       style="font-family:'Hanken Grotesk';-inkscape-font-specification:'Hanken Grotesk';fill:#023d6b"
       id="path475" />
    <path
       d="m 178.84294,-29.292148 h 0.72873 v -2.886891 c 0,-1.139808 -0.69136,-1.793797 -1.89657,-1.793797 -0.78478,0 -1.45746,0.270938 -1.96196,0.86887 l 0.5699,0.48582 c 0.41108,-0.48582 0.8315,-0.672673 1.33601,-0.672673 0.7661,0 1.16783,0.401735 1.16783,1.11178 v 0.168168 h -1.42009 c -0.45779,0 -0.88755,0.07474 -1.21455,0.280281 -0.32699,0.205539 -0.55121,0.551219 -0.55121,1.065067 0,0.86887 0.66333,1.448117 1.71905,1.448117 0.64465,0 1.16784,-0.298966 1.47615,-0.784786 z m -2.44779,-1.364033 c 0,-0.252252 0.0934,-0.439106 0.2616,-0.560561 0.22422,-0.158826 0.54188,-0.196197 0.82216,-0.196197 h 1.30797 v 0.177512 c 0,0.794128 -0.6353,1.373375 -1.39206,1.373375 -0.61661,0 -0.99967,-0.308309 -0.99967,-0.794129 z"
       style="font-family:'Hanken Grotesk';-inkscape-font-specification:'Hanken Grotesk';fill:#023d6b"
       id="path477" />
    <path
       d="m 181.78589,-29.217406 c 0.18686,0 0.43911,-0.04671 0.65399,-0.130798 v -0.672674 c -0.14948,0.04671 -0.28962,0.07474 -0.40173,0.07474 -0.25226,0 -0.41108,-0.149483 -0.41108,-0.513848 v -5.344019 h -0.78479 v 5.493502 c 0,0.756758 0.38305,1.093095 0.94361,1.093095 z"
       style="font-family:'Hanken Grotesk';-inkscape-font-specification:'Hanken Grotesk';fill:#023d6b"
       id="path479" />
    <path
       d="m 185.36414,-29.217406 c 1.28929,0 2.2329,-0.999668 2.2329,-2.382386 0,-1.382719 -0.93427,-2.373044 -2.2329,-2.373044 -1.31732,0 -2.24225,0.990325 -2.24225,2.373044 0,1.39206 0.94361,2.382386 2.24225,2.382386 z m 0,-0.700702 c -0.88756,0 -1.45746,-0.663331 -1.45746,-1.681684 0,-1.018354 0.5699,-1.681685 1.45746,-1.681685 0.87821,0 1.43877,0.653989 1.43877,1.681685 0,1.018353 -0.56056,1.681684 -1.43877,1.681684 z"
       style="font-family:'Hanken Grotesk';-inkscape-font-specification:'Hanken Grotesk';fill:#023d6b"
       id="path481" />
    <path
       d="m 190.5867,-27.302155 c 1.22389,0 1.96197,-0.467134 1.96197,-1.317319 0,-0.97164 -0.98099,-1.139808 -2.17685,-1.307977 -0.67267,-0.09343 -1.06507,-0.205539 -1.06507,-0.569904 0,-0.186854 0.0654,-0.336337 0.21488,-0.448449 0.27094,0.14014 0.59794,0.214882 0.95296,0.214882 1.0277,0 1.74708,-0.62596 1.74708,-1.578915 0,-0.308309 -0.0747,-0.579247 -0.20554,-0.812814 l 0.71005,-0.607275 -0.40174,-0.495162 -0.73807,0.607274 c -0.30831,-0.224224 -0.71005,-0.355022 -1.13981,-0.355022 -0.99032,0 -1.78445,0.663331 -1.78445,1.634971 0,0.429764 0.15882,0.803471 0.42976,1.083752 -0.33634,0.233567 -0.54187,0.541876 -0.54187,0.878213 0,0.439106 0.28028,0.710045 0.67267,0.887556 l -0.75676,0.551218 c -0.028,0.09343 -0.028,0.196197 -0.028,0.261596 0,0.859527 0.82216,1.373375 2.14882,1.373375 z m -0.1308,-4.073413 c -0.62596,0 -1.00901,-0.429764 -1.00901,-0.990325 0,-0.560561 0.41108,-0.97164 1.00901,-0.97164 0.58859,0 0.98099,0.401736 0.98099,0.980983 0,0.551218 -0.36437,0.980982 -0.98099,0.980982 z m -1.23323,2.728066 c 0,-0.03737 0,-0.07474 0.009,-0.121455 l 0.44845,-0.560562 c 0.1962,0.04671 0.40174,0.08409 0.59793,0.112113 0.88756,0.121455 1.49483,0.196196 1.49483,0.691359 0,0.439106 -0.5045,0.616617 -1.18652,0.616617 -0.77544,0 -1.36403,-0.233567 -1.36403,-0.738072 z"
       style="font-family:'Hanken Grotesk';-inkscape-font-specification:'Hanken Grotesk';fill:#023d6b"
       id="path483" />
  </g>
  <text
     xml:space="preserve"
     style="font-size:17.8689px;line-height:0.8;font-family:'Nanum Pen';-inkscape-font-specification:'Nanum Pen, Normal'"
     x="-19.25985"
     y="179.4884"
     id="text14085"><tspan
       sodipodi:role="line"
       id="tspan14083"
       x="-19.25985"
       y="179.4884" /></text>
</svg>
