<?xml version="1.0" encoding="UTF-8" standalone="no"?>
<svg
   viewBox="-124.608 159.875 302.39007 25.784532"
   version="1.1"
   id="svg947"
   sodipodi:docname="catalog_logo.svg"
   width="302.39008"
   height="25.784531"
   inkscape:version="1.1.1 (c3084ef, 2021-09-22)"
   xmlns:inkscape="http://www.inkscape.org/namespaces/inkscape"
   xmlns:sodipodi="http://sodipodi.sourceforge.net/DTD/sodipodi-0.dtd"
   xmlns="http://www.w3.org/2000/svg"
   xmlns:svg="http://www.w3.org/2000/svg">
  <defs
     id="defs951">
    <rect
       x="117.60154"
       y="-35.831718"
       width="207.94647"
       height="26.03159"
       id="rect2763" />
    <rect
       x="117.60154"
       y="-35.831718"
       width="207.94647"
       height="26.03159"
       id="rect2763-2" />
  </defs>
  <sodipodi:namedview
     id="namedview949"
     pagecolor="#ffffff"
     bordercolor="#666666"
     borderopacity="1.0"
     inkscape:pageshadow="2"
     inkscape:pageopacity="0.0"
     inkscape:pagecheckerboard="0"
     showgrid="false"
     inkscape:zoom="2.5802965"
     inkscape:cx="143.2006"
     inkscape:cy="-44.180969"
     inkscape:window-width="1296"
     inkscape:window-height="790"
     inkscape:window-x="0"
     inkscape:window-y="25"
     inkscape:window-maximized="0"
     inkscape:current-layer="svg947" />
  <path
     inkscape:connector-curvature="0"
     id="path71"
     style="fill:#023d6b;stroke-width:0.263727;stroke-linecap:butt;stroke-linejoin:round;stroke-miterlimit:100000"
     d="m -70.94002,180.89473 h -0.36428 a 0.13091411,0.13091411 0 0 0 -0.130915,0.13661 v 1.59943 c 0,0.47243 -0.239059,0.72856 -0.603348,0.72856 -0.364281,0 -0.569192,-0.25613 -0.569192,-0.72856 v -1.59943 a 0.14229795,0.14229795 0 0 0 -0.142292,-0.13661 h -0.358588 a 0.13660603,0.13660603 0 0 0 -0.136616,0.13661 v 1.52543 c 0,0.82534 0.335826,1.3376 1.03024,1.3376 a 0.85947959,0.85947959 0 0 0 0.785489,-0.37567 v 0.18214 a 0.13091411,0.13091411 0 0 0 0.130914,0.13661 h 0.364281 a 0.13660603,0.13660603 0 0 0 0.136608,-0.13661 v -2.6695 a 0.13660603,0.13660603 0 0 0 -0.142301,-0.13661 z m -4.553535,-0.0626 a 0.89932311,0.89932311 0 0 0 -0.813944,0.39843 v -1.37175 a 0.14229795,0.14229795 0 0 0 -0.1423,-0.1423 h -0.358596 a 0.13660603,0.13660603 0 0 0 -0.136599,0.1423 v 3.84204 a 0.13091411,0.13091411 0 0 0 0.136599,0.13661 h 0.381367 a 0.13660603,0.13660603 0 0 0 0.142292,-0.13661 v -1.59374 c 0,-0.47242 0.256137,-0.73425 0.626118,-0.73425 0.369974,0 0.62041,0.26183 0.62041,0.73425 v 1.59374 a 0.13660603,0.13660603 0 0 0 0.136615,0.13661 h 0.358589 a 0.13660603,0.13660603 0 0 0 0.1423,-0.13661 v -1.52544 c -0.0058,-0.80255 -0.352896,-1.34328 -1.075773,-1.34328 z m 0.973321,-16.4155 h -1.417291 a 0.52934838,0.52934838 0 0 0 -0.529343,0.52935 v 6.76201 c 0,1.7588 -0.853792,2.51013 -2.066173,2.51013 -1.21238,0 -2.032016,-0.75133 -2.032016,-2.51013 v -6.76201 a 0.52934838,0.52934838 0 0 0 -0.529352,-0.52935 h -1.417283 a 0.52934838,0.52934838 0 0 0 -0.529351,0.52935 v 6.76201 c 0,2.98825 1.810035,4.83242 4.508002,4.83242 2.697967,0 4.553536,-1.84417 4.553536,-4.83242 v -6.76201 a 0.52934838,0.52934838 0 0 0 -0.523651,-0.52935 z m -9.9381,16.50657 h -0.07399 a 0.8936311,0.8936311 0 0 0 -0.785488,0.43828 v -0.30168 a 0.13091411,0.13091411 0 0 0 -0.130915,-0.1366 h -0.330124 a 0.13660603,0.13660603 0 0 0 -0.136608,0.1366 v 2.66951 a 0.13091411,0.13091411 0 0 0 0.136608,0.1366 h 0.352895 a 0.14229795,0.14229795 0 0 0 0.1423,-0.1366 v -1.36036 c 0,-0.5692 0.250444,-0.8481 0.74564,-0.8481 h 0.07965 a 0.13660603,0.13660603 0 0 0 0.1423,-0.13092 v -0.35858 a 0.14229795,0.14229795 0 0 0 -0.125222,-0.13661 z m 5.356101,0.47812 a 0.60903521,0.60903521 0 0 1 0.614734,0.52365 0.09676261,0.09676261 0 0 0 0.09676,0.0854 h 0.409814 a 0.08537877,0.08537877 0 0 0 0.08538,-0.0968 0.18214137,0.18214137 0 0 0 0,-0.0741 1.2009947,1.2009947 0 0 0 -1.195302,-0.979 1.24653,1.24653 0 0 0 -1.252221,1.34328 v 0.38136 a 1.2408381,1.2408381 0 0 0 1.252221,1.3376 1.178227,1.178227 0 0 0 1.195302,-0.94485 0.72856551,0.72856551 0 0 0 0,-0.0968 0.09107069,0.09107069 0 0 0 -0.09677,-0.0911 h -0.409814 a 0.08537877,0.08537877 0 0 0 -0.09107,0.0797 0.56919182,0.56919182 0 0 1 -0.609041,0.51796 c -0.36428,0 -0.631803,-0.25613 -0.631803,-0.72856 v -0.52366 c 0.01706,-0.50089 0.284592,-0.76271 0.648881,-0.76271 z m -3.773739,0.29598 c 0,-0.24475 0.22198,-0.32444 0.478117,-0.32444 a 0.5008888,0.5008888 0 0 1 0.569192,0.36428 c 0,0.0626 0.03986,0.0911 0.108152,0.0911 h 0.369966 a 0.09676261,0.09676261 0 0 0 0.09677,-0.10245 0.25044441,0.25044441 0 0 0 0,-0.0741 1.0302372,1.0302372 0 0 0 -1.098535,-0.79117 c -0.569192,0 -1.138384,0.25612 -1.138384,0.86516 0,1.19531 1.673419,0.7001 1.673419,1.31484 0,0.2732 -0.204911,0.37566 -0.569191,0.37566 a 0.56919182,0.56919182 0 0 1 -0.603348,-0.39274 c 0,-0.0569 -0.03978,-0.0968 -0.102452,-0.0968 h -0.364289 a 0.10814644,0.10814644 0 0 0 -0.108144,0.0968 0.17644945,0.17644945 0 0 0 0,0.0797 1.0757725,1.0757725 0 0 0 1.138384,0.81964 c 0.60904,0 1.138384,-0.22768 1.138384,-0.89364 0.09677,-1.20668 -1.57096,-0.71718 -1.57096,-1.36037 z m 2.652434,-18.29383 a 1.2294543,1.2294543 0 1 0 -1.229459,-1.22945 1.1383836,1.1383836 0 0 0 1.246528,1.20099 z m 3.585906,0 a 1.2294543,1.2294543 0 1 0 -1.229458,-1.22945 1.1383836,1.1383836 0 0 0 1.246536,1.20099 z m -9.038775,1.57097 a 0.52934838,0.52934838 0 0 0 -0.529344,-0.52935 h -1.417291 a 0.52934838,0.52934838 0 0 0 -0.529343,0.52935 v 7.68978 a 1.4457472,1.4457472 0 1 1 -2.8858,0 v -0.15368 a 0.52934838,0.52934838 0 0 0 -0.529352,-0.52934 h -1.366057 a 0.52934838,0.52934838 0 0 0 -0.529344,0.52934 v 0.11953 a 3.8932727,3.8932727 0 1 0 7.786531,0 z m -29.671963,5.88545 4.20064,-10.91141 a 12.920654,12.920654 0 0 0 -12.86943,6.94414 0.28459589,0.28459589 0 0 1 0,0.074 l -0.18214,0.47243 c -1.27499,3.29563 0.67165,5.73746 2.56136,6.46603 a 4.8665899,4.8665899 0 0 0 6.28957,-3.04518 z m 27.184599,9.97224 a 1.2522219,1.2522219 0 0 0 -1.263597,1.34328 v 0.38136 a 1.2692986,1.2692986 0 1 0 2.538589,0 v -0.38136 a 1.2522219,1.2522219 0 0 0 -1.274992,-1.34328 z m 0.637496,1.79865 c 0,0.47242 -0.261829,0.72856 -0.637496,0.72856 -0.375666,0 -0.62611,-0.25614 -0.62611,-0.72856 v -0.52367 c 0,-0.47242 0.267522,-0.73425 0.62611,-0.73425 0.358589,0 0.637496,0.26183 0.637496,0.73425 z m -20.206305,-8.94201 c -2.50445,6.5457 -8.53788,8.99893 -14.06473,8.05407 a 12.903578,12.903578 0 1 0 18.08323,-18.40198 z m 17.644945,6.02774 h -2.276767 a 0.13660603,0.13660603 0 0 0 -0.130915,0.1423 v 3.84204 a 0.13091411,0.13091411 0 0 0 0.130915,0.13661 h 0.358596 a 0.13660603,0.13660603 0 0 0 0.142292,-0.13661 v -1.50836 h 1.422984 a 0.13660603,0.13660603 0 0 0 0.136599,-0.1366 v -0.31305 a 0.14229795,0.14229795 0 0 0 -0.136599,-0.14231 h -1.422984 v -1.29206 h 1.775879 a 0.14229795,0.14229795 0 0 0 0.142292,-0.13661 v -0.31305 a 0.14229795,0.14229795 0 0 0 -0.142292,-0.1423 z m 48.637453,1.17823 h -0.358589 a 0.13660603,0.13660603 0 0 0 -0.136599,0.13661 v 1.59943 c 0,0.47242 -0.239067,0.72856 -0.603348,0.72856 -0.364281,0 -0.569192,-0.25614 -0.569192,-0.72856 v -1.59943 a 0.14229795,0.14229795 0 0 0 -0.1423,-0.13661 h -0.358588 a 0.13660603,0.13660603 0 0 0 -0.136607,0.13661 v 1.52542 c 0,0.82534 0.335826,1.33761 1.03024,1.33761 a 0.85947959,0.85947959 0 0 0 0.785488,-0.37567 v 0.18214 a 0.13091411,0.13091411 0 0 0 0.136599,0.13661 h 0.358588 a 0.13660603,0.13660603 0 0 0 0.136608,-0.13661 v -2.6695 a 0.13660603,0.13660603 0 0 0 -0.159378,-0.13661 z m -6.027737,-8.79403 h -1.758802 c -0.341518,0 -0.409822,0.27322 -0.44397,0.52936 a 1.7815704,1.7815704 0 0 1 -1.946643,1.58805 c -1.246528,0 -2.276768,-0.9221 -2.276768,-2.68089 v -2.27677 c 0,-1.75881 1.007478,-2.71505 2.276768,-2.71505 a 1.8612572,1.8612572 0 0 1 1.952336,1.66204 c 0.05127,0.34152 0.239059,0.46104 0.426892,0.46104 h 1.741723 a 0.35859086,0.35859086 0 0 0 0.375666,-0.42688 4.2973981,4.2973981 0 0 0 -4.496617,-4.0185 c -2.732114,0 -4.729983,2.01494 -4.729983,5.00319 v 2.27677 c 0,2.98826 1.997869,5.0032 4.729983,5.0032 a 4.3884687,4.3884687 0 0 0 4.553544,-4.02988 0.38705041,0.38705041 0 0 0 -0.404129,-0.37568 z m 2.618286,8.79403 h -0.07973 a 0.87655535,0.87655535 0 0 0 -0.779796,0.43828 v -0.30167 a 0.13660603,0.13660603 0 0 0 -0.136607,-0.13661 h -0.330133 a 0.13660603,0.13660603 0 0 0 -0.136607,0.13661 v 2.6695 a 0.13091411,0.13091411 0 0 0 0.136607,0.13661 h 0.352895 a 0.14229795,0.14229795 0 0 0 0.1423,-0.13661 v -1.3319 c 0,-0.5692 0.250445,-0.8481 0.74564,-0.8481 h 0.08539 a 0.13091411,0.13091411 0 0 0 0.136599,-0.13092 v -0.35858 a 0.13660603,0.13660603 0 0 0 -0.136599,-0.13661 z m -2.669512,0 h -0.597647 v -0.62611 a 0.13660603,0.13660603 0 0 0 -0.136616,-0.14231 h -0.347203 a 0.13660603,0.13660603 0 0 0 -0.130914,0.14231 v 0.25613 c 0,0.30167 -0.11953,0.36998 -0.409823,0.36998 a 0.13660603,0.13660603 0 0 0 -0.136599,0.13661 v 0.26752 a 0.13660603,0.13660603 0 0 0 0.136599,0.1366 h 0.40413 v 1.45713 c 0,0.60904 0.204911,0.94486 0.91071,0.94486 h 0.307363 a 0.13660603,0.13660603 0 0 0 0.136607,-0.13661 v -0.30167 a 0.13091411,0.13091411 0 0 0 -0.136607,-0.13091 h -0.204911 c -0.352896,0 -0.392736,-0.12523 -0.392736,-0.46105 v -1.35467 h 0.597647 a 0.13660603,0.13660603 0 0 0 0.130915,-0.15368 v -0.2846 a 0.13660603,0.13660603 0 0 0 -0.130915,-0.11953 z m 10.59835,-0.0626 a 1.0302372,1.0302372 0 0 0 -0.916394,0.47812 0.93347454,0.93347454 0 0 0 -0.865178,-0.47812 0.83671191,0.83671191 0 0 0 -0.762718,0.39843 v -0.19921 a 0.14229795,0.14229795 0 0 0 -0.142291,-0.13661 h -0.381359 a 0.13660603,0.13660603 0 0 0 -0.136616,0.13661 v 2.6695 a 0.13091411,0.13091411 0 0 0 0.136616,0.13661 h 0.358588 a 0.14229795,0.14229795 0 0 0 0.1423,-0.13661 v -1.50266 c 0,-0.47243 0.09107,-0.82533 0.569184,-0.82533 0.478126,0 0.569192,0.29029 0.569192,0.82533 v 1.50266 a 0.13660603,0.13660603 0 0 0 0.136615,0.13661 h 0.364273 a 0.13660603,0.13660603 0 0 0 0.136607,-0.13661 v -1.50266 c 0,-0.50658 0.119538,-0.82533 0.597656,-0.82533 0.478117,0 0.569192,0.31875 0.569192,0.82533 v 1.50266 a 0.13091411,0.13091411 0 0 0 0.136599,0.13661 h 0.404129 a 0.14229795,0.14229795 0 0 0 0.1423,-0.13661 v -1.44005 c -0.02272,-0.8481 -0.193526,-1.42867 -1.058695,-1.42867 z m -14.229798,0 a 0.8936311,0.8936311 0 0 0 -0.808251,0.40413 v -0.20491 a 0.13660603,0.13660603 0 0 0 -0.136607,-0.13661 h -0.364281 a 0.13091411,0.13091411 0 0 0 -0.130915,0.13661 v 2.6695 a 0.13091411,0.13091411 0 0 0 0.130915,0.13661 h 0.364281 a 0.13660603,0.13660603 0 0 0 0.136607,-0.13661 v -1.59373 c 0,-0.47243 0.261821,-0.73426 0.62611,-0.73426 0.36429,0 0.626111,0.26183 0.626111,0.73426 v 1.59373 a 0.13091411,0.13091411 0 0 0 0.136607,0.13661 h 0.335826 a 0.13660603,0.13660603 0 0 0 0.136599,-0.13661 v -1.52543 c 0.0114,-0.80256 -0.34151,-1.34329 -1.064379,-1.34329 z m 14.79899,-16.4155 h -1.417291 a 0.52934838,0.52934838 0 0 0 -0.529352,0.52935 v 4.26895 h -4.081102 v -4.26895 a 0.52934838,0.52934838 0 0 0 -0.529343,-0.52935 h -1.417292 a 0.52934838,0.52934838 0 0 0 -0.529351,0.52935 v 10.89433 a 0.52934838,0.52934838 0 0 0 0.529351,0.52935 h 1.417292 a 0.52934838,0.52934838 0 0 0 0.529343,-0.52935 v -4.30304 h 4.046955 v 4.30307 a 0.52934838,0.52934838 0 0 0 0.529343,0.52935 h 1.417291 a 0.52934838,0.52934838 0 0 0 0.529352,-0.52935 v -10.89433 a 0.52934838,0.52934838 0 0 0 -0.529352,-0.52935 z m -31.772297,16.4155 a 0.8936311,0.8936311 0 0 0 -0.808251,0.40413 v -0.20491 a 0.13660603,0.13660603 0 0 0 -0.136607,-0.13661 h -0.358597 a 0.13660603,0.13660603 0 0 0 -0.136599,0.13661 v 2.6695 a 0.13091411,0.13091411 0 0 0 0.136599,0.13661 h 0.358597 a 0.13660603,0.13660603 0 0 0 0.136607,-0.13661 v -1.59373 c 0,-0.47243 0.26183,-0.73426 0.62611,-0.73426 0.364281,0 0.626111,0.26183 0.626111,0.73426 v 1.59373 a 0.13091411,0.13091411 0 0 0 0.136607,0.13661 h 0.358597 a 0.14229795,0.14229795 0 0 0 0.142291,-0.13661 v -1.52543 c 0,-0.80256 -0.352895,-1.34329 -1.081465,-1.34329 z m 3.790818,2.43614 h -0.76271 c -0.199226,0 -0.284608,-0.0626 -0.284608,-0.2106 a 0.20490904,0.20490904 0 0 1 0.233374,-0.2106 h 0.569192 a 0.98470182,0.98470182 0 0 0 1.138384,-1.00178 v -1.20668 a 0.13660603,0.13660603 0 0 0 -0.136599,-0.13661 h -0.318748 a 0.13660603,0.13660603 0 0 0 -0.136616,0.13661 v 0.38136 a 1.0643887,1.0643887 0 0 0 -0.603339,-0.18784 h -0.147993 a 1.0074695,1.0074695 0 0 0 -1.138375,1.01316 0.79686852,0.79686852 0 0 0 0.375657,0.71719 0.4724292,0.4724292 0 0 0 -0.398428,0.48381 0.46673728,0.46673728 0 0 0 0.267514,0.44965 0.71718168,0.71718168 0 0 0 -0.398429,0.67735 0.91639886,0.91639886 0 0 0 1.041617,0.89931 h 0.683029 a 0.91070695,0.91070695 0 1 0 0,-1.80433 z m -0.426892,-1.94094 h 0.15937 a 0.51796453,0.51796453 0 1 1 0,1.03024 h -0.15937 a 0.49519687,0.49519687 0 0 1 -0.569192,-0.51228 0.5008888,0.5008888 0 0 1 0.569192,-0.51796 z m 0.307362,3.25577 h -0.466732 c -0.398445,0 -0.540737,-0.15937 -0.540737,-0.40981 0,-0.25045 0.142292,-0.4269 0.540737,-0.4269 h 0.455347 c 0.404129,0 0.5692,0.16506 0.5692,0.4269 0,0.26182 -0.153694,0.40981 -0.5692,0.40981 z m 2.618278,-2.91426 c 0,-0.24474 0.221989,-0.32443 0.478134,-0.32443 a 0.50658071,0.50658071 0 0 1 0.569184,0.36428 c 0,0.0626 0.03986,0.0911 0.10246,0.0911 h 0.375666 a 0.09676261,0.09676261 0 0 0 0.09676,-0.10245 0.25044441,0.25044441 0 0 0 0,-0.074 1.0302372,1.0302372 0 0 0 -1.098544,-0.79117 c -0.569192,0 -1.138375,0.25613 -1.138375,0.86517 0,1.1953 1.673419,0.70011 1.673419,1.31483 0,0.27322 -0.204911,0.37567 -0.540728,0.37567 a 0.56919182,0.56919182 0 0 1 -0.603348,-0.39274 c 0,-0.0569 -0.03986,-0.0968 -0.10246,-0.0968 h -0.369965 a 0.10245453,0.10245453 0 0 0 -0.10246,0.0968 0.17644945,0.17644945 0 0 0 0,0.0796 1.0700806,1.0700806 0 0 0 1.166847,0.81964 c 0.609033,0 1.138384,-0.22768 1.138384,-0.89364 0.0228,-1.17823 -1.644973,-0.68872 -1.644973,-1.33191 z m -1.770187,-5.82853 v -1.2636 a 0.52934838,0.52934838 0 0 0 -0.529343,-0.52935 h -4.553535 v -9.10707 a 0.52934838,0.52934838 0 0 0 -0.529352,-0.52935 h -1.417291 a 0.52934838,0.52934838 0 0 0 -0.529344,0.52935 v 10.90002 a 0.52934838,0.52934838 0 0 0 0.529344,0.52935 h 6.488793 a 0.52934838,0.52934838 0 0 0 0.540728,-0.52935 z m 4.695844,0 v -10.89433 a 0.52934838,0.52934838 0 0 0 -0.529351,-0.52935 h -1.417292 a 0.52934838,0.52934838 0 0 0 -0.529351,0.52935 v 10.89433 a 0.52934838,0.52934838 0 0 0 0.529351,0.52935 h 1.417292 a 0.52934838,0.52934838 0 0 0 0.529351,-0.52935 z m 1.707576,5.05443 h -1.94095 a 0.14229795,0.14229795 0 0 0 -0.1423,0.13661 v 0.26752 a 0.13660603,0.13660603 0 0 0 0.1423,0.1366 h 1.337602 l -1.37175,1.75311 a 0.31874741,0.31874741 0 0 0 -0.108152,0.26184 v 0.23905 a 0.13660603,0.13660603 0 0 0 0.1423,0.13661 h 1.94095 a 0.13091411,0.13091411 0 0 0 0.136599,-0.13661 v -0.26751 a 0.13660603,0.13660603 0 0 0 -0.136599,-0.14231 h -1.360373 l 1.411599,-1.74741 a 0.30167166,0.30167166 0 0 0 0.08537,-0.23337 v -0.2846 a 0.13660603,0.13660603 0 0 0 -0.113828,-0.11953 z m 2.276768,-0.0626 a 1.2579139,1.2579139 0 0 0 -1.274991,1.34328 v 0.38136 a 1.2579139,1.2579139 0 0 0 1.280684,1.33761 1.2066867,1.2066867 0 0 0 1.138383,-0.7798 0.36428274,0.36428274 0 0 0 0,-0.0968 0.09676261,0.09676261 0 0 0 -0.09677,-0.10245 h -0.381358 a 0.17075754,0.17075754 0 0 0 -0.136599,0.0854 0.56919182,0.56919182 0 0 1 -0.569201,0.35859 0.64887867,0.64887867 0 0 1 -0.643188,-0.70011 v -0.0796 h 1.747424 a 0.14229795,0.14229795 0 0 0 0.210604,-0.1423 v -0.27321 a 1.2522219,1.2522219 0 0 0 -1.246536,-1.33191 z m 0.637496,1.29775 h -1.274992 v -0.0683 a 0.637496,0.637496 0 1 1 1.274992,0 z" />
  <text
     xml:space="preserve"
     transform="matrix(1.9979975,0,0,1.9979975,-206.54368,232.347)"
     id="text2761"
     style="font-size:12px;line-height:0.8;font-family:'Nanum Pen';-inkscape-font-specification:'Nanum Pen, Normal';white-space:pre;shape-inside:url(#rect2763)"><tspan
       x="117.60156"
       y="-27.432031"
       id="tspan18520"><tspan
         style="font-family:'Apple Symbols';-inkscape-font-specification:'Apple Symbols, Normal';fill:#023d6b"
         id="tspan18518">ICF Study Catalog</tspan></tspan></text>
  <text
     xml:space="preserve"
     style="font-size:17.8689px;line-height:0.8;font-family:'Nanum Pen';-inkscape-font-specification:'Nanum Pen, Normal'"
     x="-19.25985"
     y="179.4884"
     id="text14085"><tspan
       sodipodi:role="line"
       id="tspan14083"
       x="-19.25985"
       y="179.4884" /></text>
</svg>
